<svg xmlns:mydata="http://www.w3.org/2000/svg" mydata:contrastcolor="000000" mydata:template="Contrast" mydata:presentation="2.5" mydata:layouttype="undefined" mydata:specialfontid="undefined" mydata:id1="826" mydata:id2="046" mydata:companyname="Colombia Transit" mydata:companytagline="" version="1.1" xmlns="http://www.w3.org/2000/svg" xmlns:xlink="http://www.w3.org/1999/xlink" viewBox="0 0 550 470">
	<g fill="none" fill-rule="none" stroke="none" stroke-width="1" stroke-linecap="butt" stroke-linejoin="miter" stroke-miterlimit="10" stroke-dasharray="" stroke-dashoffset="0" font-family="none" font-weight="none" font-size="none" text-anchor="none" style="mix-blend-mode: normal">
		<g data-paper-data="{&quot;isGlobalGroup&quot;:true}">
			<g data-paper-data="{&quot;isPrimaryText&quot;:true}">
				<path d="M95.49515,192.92893c0,5.88666 -0.38225,14.67842 -0.38225,18.42448c0,7.72146 0.38225,6.80406 4.20476,6.88051c1.9877,0 3.97541,0 5.96311,0c35.3964,0 32.7971,0.9174 32.7971,-5.50441c0,-1.60545 -0.1529,-3.28735 -0.38225,-4.89281c-0.22935,-1.6819 -0.38225,-1.8348 -4.89281,-1.8348c-1.9877,0 -21.55893,0.4587 -21.55893,0.4587c-0.6116,0 -0.99385,-0.3058 -0.99385,-0.99385c0,0 0,-0.3058 0,-0.53515c0,0 0,-0.07645 0,-3.66961c0,-0.99385 0,-1.9877 0,-2.9051c0,-9.47981 -0.1529,-25.53434 -0.1529,-25.53434c0,-1.9877 -1.3761,-1.14675 24.92274,-1.60545c2.52285,0 2.7522,-0.7645 2.7522,-5.12216c0,-1.6819 -0.1529,-3.44025 -0.3058,-5.12216c-0.22935,-1.9877 1.29965,-1.91125 -28.05719,-1.91125c-14.60197,0 -14.52552,0.07645 -14.52552,2.7522c0,0 0.68805,17.96578 0.68805,22.32343c0,1.29965 0,2.5993 -0.07645,3.89896c0,1.60545 0,3.28735 0,4.89281z" data-paper-data="{&quot;glyphName&quot;:&quot;C&quot;,&quot;glyphIndex&quot;:0,&quot;firstGlyphOfWord&quot;:true,&quot;word&quot;:1,&quot;line&quot;:1,&quot;firstGlyphOfFirstLine&quot;:true}" fill="#013893" fill-rule="nonzero" id="path-id-89499" data-original-fill="#00c1d5"/>
				<path d="M185.09468,216.09332c0.07645,-3.89896 0.6116,-33.33225 0.6116,-33.33225c0,-22.39988 0.4587,-23.31728 -4.20476,-23.31728c0,0 -0.53515,0 -0.9174,0c-2.4464,0 -31.11519,-0.68805 -33.17935,-0.68805c-4.89281,0 -4.66346,-1.3761 -4.66346,17.27772c0,8.56241 0.22935,17.20127 0.22935,25.76369c0,9.09756 -0.3058,14.75487 -0.3058,14.75487c0,0.99385 0.53515,1.529 1.529,1.529c0.38225,0 0.6116,-0.07645 1.45255,-0.07645c0,0 4.66346,0.3058 10.09141,0.3058c30.65649,0 29.35684,0.68805 29.35684,-2.21705zM169.49885,197.43949c0,8.86821 0.3058,8.33306 -1.29965,8.33306c-10.93237,0 -10.01496,0.07645 -10.01496,-1.29965c0,-36.9254 -0.7645,-32.87355 4.43411,-32.87355c7.26276,0 7.03341,-0.1529 7.03341,0.9174c0,0 -0.1529,3.13445 -0.1529,8.56241c0,1.75835 0,3.5167 0,5.27506c0,0.84095 0,1.6819 0,2.52285c0,2.9051 0,5.73376 0,8.56241z" data-paper-data="{&quot;glyphName&quot;:&quot;O&quot;,&quot;glyphIndex&quot;:1,&quot;word&quot;:1,&quot;line&quot;:1}" fill="#fdd116" fill-rule="nonzero" id="path-id-49776" data-original-fill="#ffb81c"/>
				<path d="M205.04815,183.29622c0.07645,-2.2935 0.38225,-15.97807 0.38225,-18.27158c0,-5.42796 0.3058,-5.65731 -4.05186,-5.65731c-2.36995,0 -4.73991,0.22935 -7.03341,0.22935c-1.29965,0 -2.67575,-0.07645 -2.67575,-0.07645c-1.0703,0 -1.3761,0.38225 -1.3761,1.529c0,0 0.6116,7.87436 0.6116,39.21891c0,3.2109 0,6.49826 0,9.70916c0,3.13445 0,4.96926 0,4.96926c0,1.29965 -0.1529,1.60545 -0.1529,2.2935c0,0.84095 0.4587,0.99385 1.75835,0.99385c1.529,0 3.44025,0 5.12216,0c2.21705,0 3.59316,0.07645 8.63886,0.07645c28.51589,0 26.45174,1.2232 26.45174,-5.04571c0,-8.48596 3.13445,-7.26276 -25.07564,-7.26276c-0.22935,0 -0.53515,0 -0.7645,0c-1.91125,0 -1.8348,0 -1.8348,-1.529c0,0 0,0.6116 0,-16.58967c0,-1.529 0,-3.058 0,-4.58701z" data-paper-data="{&quot;glyphName&quot;:&quot;L&quot;,&quot;glyphIndex&quot;:2,&quot;word&quot;:1,&quot;line&quot;:1}" fill="#ce1127" fill-rule="nonzero" id="path-id-41491" data-original-fill="#e31c79"/>
				<g data-paper-data="{&quot;glyphName&quot;:&quot;&quot;,&quot;glyphIndex&quot;:3,&quot;word&quot;:1,&quot;line&quot;:1}" fill-rule="evenodd">
					<path d="M259.93933,167.31815l-0.38225,25.68724c0,1.48058 0.00956,2.71653 0.0172,3.7486c0.02803,3.64348 0.03631,4.74054 -0.46061,5.06609c-0.21406,0.14016 -0.52241,0.13697 -0.96391,0.13188c-0.08601,-0.00064 -0.17775,-0.00191 -0.27458,-0.00191c-16.80883,0 -19.53874,0 -19.96176,-0.98748c-0.08155,-0.19176 -0.07709,-0.41984 -0.07135,-0.69315c0.00127,-0.0739 0.00319,-0.15035 0.00319,-0.23062c0,0 0.3058,-4.28121 0.3058,-16.74257c0,-6.11601 -0.07645,-16.05452 -0.07645,-16.05452c0,-1.38056 0.13825,-1.37992 1.46402,-1.37674c0.06944,0.00064 0.14207,0.00064 0.21788,0.00064c1.45255,0 8.63886,-0.3058 15.44292,-0.3058c0.50776,0 0.96136,-0.00255 1.36591,-0.00446c2.09856,-0.01147 2.893,-0.01593 3.1937,0.36696c0.18284,0.23381 0.18221,0.61224 0.18029,1.22065c0,0.0567 0,0.11468 0,0.1752zM251.47312,190.13659c-0.00956,-0.56191 -0.01975,-1.20664 -0.01975,-1.94757c0,-4.35766 -0.07645,-6.19246 -0.1529,-7.64501c-0.07645,-1.29965 -0.1529,-2.1406 -0.1529,-4.12831c0,-1.60545 0.1529,-3.13445 0.1529,-3.13445c0,-1.17478 -0.74921,-1.16268 -1.57105,-1.1493c-0.08728,0.00127 -0.17584,0.00255 -0.26375,0.00255c-0.53388,0 -0.98175,-0.02739 -1.35699,-0.05033c-1.39713,-0.08537 -1.77747,-0.1083 -1.77747,1.57933c0,2.67575 -0.07645,3.28735 -0.07645,5.27506c0,1.9877 0.1529,5.19861 0.53515,12.76717c0.07645,1.8348 0.22935,2.21705 1.2232,2.21705c3.52116,0 3.52053,-0.05797 3.46,-3.78619z" fill="#013893" id="path-id-56056" data-original-fill="#00c1d5"/>
					<path d="M275.38225,159.74959c-3.97541,0 -6.88051,-0.07645 -6.88051,-0.07645c-0.27395,0 -0.52687,-0.01338 -0.76004,-0.02548c-0.54407,-0.02803 -0.98111,-0.05097 -1.33087,0.11276c-1.42261,0.66448 -1.40668,4.40671 -1.32577,23.36506c0.02357,5.57194 0.05288,12.45755 0.05288,20.96517c0,1.8348 0,1.9877 -1.60545,1.9877c-1.6819,0 -19.72413,-0.22935 -24.84629,-0.22935c-1.04354,0 -1.03017,0.55681 -1.00341,1.62265c0.00446,0.18284 0.00956,0.38098 0.00956,0.5944c0,1.3761 -0.07645,1.3761 -0.07645,2.5993c0,0.58994 0.02485,1.17924 0.04969,1.76918c0.06243,1.47447 0.12487,2.94887 -0.20259,4.42328c-0.33957,1.42579 1.00914,1.40445 2.44003,1.38184c0.18029,-0.00287 0.36186,-0.00573 0.54152,-0.00573h38.22505c1.529,0 1.6819,0 1.6819,-1.0703c0,0 -0.07645,-3.13445 -0.07645,-7.41566c0,-6.19246 0.1529,-12.38492 0.1529,-18.57738c0,-3.12235 -0.00701,-5.7344 -0.01274,-7.91896c-0.02421,-9.11222 -0.02867,-10.7903 0.56892,-11.04258c0.13506,-0.0567 0.30007,-0.04077 0.5033,-0.02166c0.11786,0.01147 0.24846,0.02357 0.39308,0.02357c1.9877,-0.07645 9.55626,-0.1529 9.78561,-0.1529c0.68805,0 0.99385,0.3058 0.99385,0.99385c0,7.07928 -0.02867,12.70091 -0.0516,17.16305c-0.07072,13.74063 -0.08537,16.49411 0.97601,17.0025c0.2663,0.12742 0.5995,0.11404 1.01679,0.09747c0.15609,-0.00637 0.32428,-0.01338 0.50521,-0.01338c0.90912,0 1.75007,0.00127 2.52922,0.00255c6.93211,0.00956 8.91918,0.0121 9.48364,-0.88236c0.2268,-0.35995 0.22425,-0.86389 0.22043,-1.57105c-0.00064,-0.09684 -0.00127,-0.19686 -0.00127,-0.30134c0.07199,-29.76139 0.07645,-30.85845 0.07645,-30.88584v-0.00127c0,-0.04523 -0.00127,-0.09429 -0.00319,-0.14589c-0.01465,-0.47081 -0.03504,-1.15249 0.99704,-1.15249c1.86666,0 3.42305,-0.00765 4.72016,-0.01338c4.93868,-0.02357 6.11856,-0.02931 6.38231,0.45934c0.08346,0.15354 0.07581,0.35549 0.06626,0.62116c-0.00319,0.09429 -0.00701,0.19686 -0.00701,0.30771v0.00127c0.00255,0.15099 0.1529,17.05729 0.1529,43.50011c0,1.29965 0.3058,1.8348 1.45255,1.8348c0.1529,0 6.19246,-0.1529 11.92622,-0.38225c1.529,-0.07645 1.8348,-0.99385 1.8348,-2.36995v-36.3138c0,-2.22279 0.0051,-4.20093 0.00956,-5.9612c0.02739,-10.48195 0.0344,-13.2539 -1.17861,-13.97635c-0.4364,-0.25993 -1.0308,-0.25483 -1.83863,-0.24783c-0.13761,0.00127 -0.28159,0.00255 -0.43131,0.00255h-0.00127c-0.15099,0.00255 -16.80883,0.14971 -32.4913,-0.22935c-4.17672,-0.04332 -8.54776,0.01083 -13.03156,0.06626c-3.47593,0.04268 -7.01939,0.08664 -10.59153,0.08664z" fill="#fdd116" id="path-id-4748" data-original-fill="#ffb81c"/>
				</g>
				<path d="M339.60035,189.64158v0c0,2.82865 0,5.58086 0,8.40951c0,20.94733 -0.7645,21.02378 3.59316,21.02378c0,0 4.81636,-0.3058 10.24431,-0.3058c4.43411,0 8.25661,0.1529 10.39721,0.1529c13.60812,0 23.62308,-2.98155 23.62308,-16.51322c0,-5.19861 -1.75835,-9.86206 -5.42796,-13.99037c-0.53515,-0.68805 -0.7645,-0.99385 -0.7645,-1.2232c0,-0.3058 0.22935,-0.53515 0.68805,-1.0703c2.1406,-2.98155 3.3638,-6.26891 3.3638,-9.78561c0,-10.01496 -7.10986,-17.88933 -20.18283,-17.88933c-0.22935,0 -21.86473,0.7645 -23.85243,1.0703c-1.29965,0.1529 -1.75835,0.53515 -1.75835,1.60545c0,0.6116 0.07645,0.68805 0.07645,1.45255c0,0.07645 0,0.07645 0,0.1529c0,6.95696 0,13.99037 0,20.94733c0,1.9877 0,3.97541 0,5.96311zM363.68213,194.53439c5.19861,0 7.26276,3.2109 7.26276,6.03956c0,2.67575 -2.1406,4.58701 -4.58701,4.66346c-7.03341,0.22935 -10.16786,0.38225 -10.16786,0.38225c-0.68805,0 -0.99385,-0.22935 -0.99385,-1.0703c0,0 0,-0.9174 0,-2.21705c0,-1.529 0,-3.058 0,-4.58701c0,-3.3638 -0.7645,-2.7522 5.81021,-3.13445v0c0.9174,0 1.75835,-0.07645 2.67575,-0.07645zM358.40707,181.38497c-1.29965,0 -1.9877,0 -1.9877,0c-0.6116,0 -0.9174,-0.3058 -0.9174,-0.9174c0,0 0.1529,-3.5167 0.22935,-6.65116c0,-0.84095 0.3058,-1.2232 1.0703,-1.2232c2.67575,-0.1529 5.35151,-0.3058 8.02726,-0.3058c0.3058,0 0.6116,0 0.9174,0c2.36995,0 4.05186,1.9877 4.05186,4.12831c0,2.06415 -1.9877,4.96926 -4.73991,4.96926c-0.6116,0 -0.7645,-0.07645 -1.91125,-0.07645c-0.68805,0 -1.45255,0.07645 -2.1406,0.07645v0c-0.84095,0 -1.75835,0 -2.5993,0z" data-paper-data="{&quot;glyphName&quot;:&quot;B&quot;,&quot;glyphIndex&quot;:4,&quot;word&quot;:1,&quot;line&quot;:1}" fill="#ce1127" fill-rule="nonzero" id="path-id-66184" data-original-fill="#e31c79"/>
				<path d="M393.11542,159.29089c-2.1406,0.07645 -0.4587,55.34988 -0.4587,55.50278c0,0.53515 0,0.99385 0,1.529c0,1.3761 0.3058,2.36995 1.75835,2.36995c0,0 0.07645,0 0.1529,0c1.9877,0 3.89896,0.1529 5.81021,0.1529c8.10371,0 6.72761,-0.38225 6.88051,-12.99652c0.22935,-10.55011 0.4587,-21.10023 0.4587,-31.72679c0,-15.59582 1.3761,-15.06067 -8.48596,-15.06067c-2.5993,0 -6.11601,0.22935 -6.11601,0.22935z" data-paper-data="{&quot;glyphName&quot;:&quot;I&quot;,&quot;glyphIndex&quot;:5,&quot;word&quot;:1,&quot;line&quot;:1}" fill="#013893" fill-rule="nonzero" id="path-id-17301" data-original-fill="#00c1d5"/>
				<path d="M455.04001,202.3323c0,-8.48596 -0.07645,-16.97192 -0.07645,-25.38144c0,-16.43677 0.22935,-17.35417 -1.3761,-17.35417h-0.07645c0,0 0.9174,-0.1529 -36.6196,-0.1529c-0.68805,0 -1.3761,0 -2.1406,0c-0.4587,0 -0.99385,0 -0.99385,0c-0.7645,0 -1.0703,0.38225 -1.0703,1.0703c0,0.07645 0.07645,1.8348 0.07645,2.36995c0,0.22935 -0.22935,12.53782 -0.22935,13.45522c0,2.06415 -0.4587,1.8348 12.92007,1.8348c2.06415,0 1.3761,-2.5993 1.3761,-4.05186c0,-2.36995 -1.2232,-2.1406 11.54397,-2.1406c0.68805,0 0.99385,0.22935 0.99385,1.0703l0.07645,8.02726c0,0.68805 -0.22935,1.0703 -0.9174,1.0703c-28.97459,0 -26.06949,-0.84095 -26.06949,3.3638c0,2.36995 0,2.67575 0,6.65116c0,29.12749 -0.3058,25.68724 3.44025,25.84014c5.12216,0.1529 10.32076,0.22935 15.44292,0.22935c3.74606,0 7.56856,-0.07645 11.31462,-0.07645c5.81021,0 9.70916,0.07645 9.70916,0.07645c1.91125,0 2.7522,-0.3058 2.7522,-2.21705c0,-0.22935 -0.07645,-0.38225 -0.07645,-0.6116c0,-4.35766 0,-8.71531 0,-13.07297zM436.15683,194.22859c2.36995,0 3.28735,-0.3058 3.28735,1.14675c0,0 -0.07645,2.06415 -0.07645,4.81636c0,2.4464 0.07645,4.66346 0.07645,4.66346c0,0.7645 -0.22935,1.2232 -1.14675,1.2232c0,0 -1.3761,-0.07645 -3.058,-0.07645c-3.59316,0 -6.95696,0.07645 -6.95696,0.07645c-1.45255,0 -1.2232,-0.7645 -1.2232,-3.5167c0,-3.82251 -0.07645,-7.26276 -0.07645,-7.26276c0,-0.84095 0.4587,-1.0703 1.2232,-1.0703c-0.07645,0 -0.1529,0 5.04571,0v0c0.99385,0 1.91125,0 2.9051,0z" data-paper-data="{&quot;glyphName&quot;:&quot;A&quot;,&quot;glyphIndex&quot;:6,&quot;lastGlyphOfWord&quot;:true,&quot;word&quot;:1,&quot;line&quot;:1,&quot;lastGlyphOfFirstLine&quot;:true}" fill="#fdd116" fill-rule="nonzero" id="path-id-73703" data-original-fill="#ffb81c"/>
				<path d="M114.09217,279.13705c0.10381,0 0.10381,0 0.10381,0c0,5.19063 0,10.38126 0,15.57189c0,17.75195 -1.24575,16.40239 6.12494,16.40239c14.22232,0 13.59945,0.51906 13.59945,-4.1525c0,0 0,-1.45338 0,-2.38769c0,-62.59898 0.10381,-56.1626 3.73725,-56.26641c15.98714,-0.20763 14.94901,0.51906 14.94901,-4.36013c0,-12.76895 -0.20763,-12.14607 -3.73725,-12.14607l-31.55902,-0.20763c0,0 -2.38769,0.41525 -19.8282,0.41525c-1.97244,0 -3.322,-0.51906 -2.18006,13.59945c0.41525,4.56775 0.72669,2.59531 11.31557,2.59531c1.03813,0 2.18006,0 3.322,0c3.11438,0 4.25632,-0.31144 4.25632,1.14194c0,-0.20763 -0.10381,1.14194 -0.10381,15.88332c0,4.56775 0,9.23932 0,13.91088z" data-paper-data="{&quot;glyphName&quot;:&quot;T&quot;,&quot;glyphIndex&quot;:7,&quot;firstGlyphOfWord&quot;:true,&quot;word&quot;:2,&quot;line&quot;:2,&quot;firstGlyphOfSecondLine&quot;:true}" fill="#ce1127" fill-rule="nonzero" id="path-id-46885" data-original-fill="#e31c79"/>
				<path d="M200.36042,279.03323c11.73082,-4.25632 18.79007,-11.5232 18.79007,-24.29214c0,-11.62701 -9.75838,-23.56545 -30.00183,-23.56545c0,0 -0.62288,0.20763 -26.88746,0.72669c-3.73725,0.10381 -3.42581,-4.1525 -3.42581,66.23242c0,2.69913 0.20763,5.29444 0.20763,7.99357c0,1.45338 -0.10381,3.01056 -0.10381,3.01056c0,1.55719 0.62288,2.28388 1.86863,2.28388c0,0 3.322,-0.41525 8.09738,-0.41525c2.38769,0 4.67157,0 7.05925,0c2.4915,0 4.04869,0.10381 4.04869,-2.59531c0,0 -0.20763,-3.42581 -0.20763,-8.30501c0,-4.04869 0.10381,-8.20119 0.10381,-12.24988c0,-1.86863 -0.10381,-2.18006 -0.10381,-2.18006c0,-0.41525 0.10381,-0.8305 0.51906,-1.24575c21.80064,30.10564 12.3537,26.88746 36.3344,26.88746c1.34956,0 2.07625,-0.31144 2.07625,-1.14194c0,-1.03813 0.51906,0.10381 -18.37482,-31.14377zM183.95803,261.59272c-1.661,0 -2.80294,0 -2.80294,0c-1.03813,0 -1.55719,-0.41525 -1.55719,-1.55719c0,0 0,-0.10381 0,-0.20763c0,-4.36013 -0.10381,-8.51263 -0.10381,-8.51263c0,-1.86863 0.51906,-1.55719 11.83463,-1.55719c0.72669,0 1.34956,0 2.07625,0c1.76481,0 5.08682,2.18006 5.08682,6.644c0,2.59531 -1.55719,5.08682 -4.46394,5.08682c0.31144,0 -9.75838,0.10381 -10.06982,0.10381z" data-paper-data="{&quot;glyphName&quot;:&quot;R&quot;,&quot;glyphIndex&quot;:8,&quot;word&quot;:2,&quot;line&quot;:2}" fill="#013893" fill-rule="nonzero" id="path-id-61663" data-original-fill="#00c1d5"/>
				<g data-paper-data="{&quot;glyphName&quot;:&quot;&quot;,&quot;glyphIndex&quot;:9,&quot;word&quot;:2,&quot;line&quot;:2}" fill-rule="evenodd">
					<path d="M304.06888,311.11131c-4.35957,0 -2.491,-0.51903 -19.30875,-34.15433c-0.06371,0.0846 -0.1185,0.13473 -0.16628,0.19089c-0.42111,0.49506 -0.29115,1.45824 -0.66448,30.64143c0,0.21514 0.00765,0.41761 0.01465,0.60816c0.01911,0.53349 0.03568,0.97359 -0.12423,1.33648c-0.75112,1.70987 -5.39993,1.70726 -31.95041,1.69203c-2.7127,-0.00153 -5.65349,-0.00319 -8.84209,-0.00319h-16.61006c-1.05183,0 -1.04673,-0.79304 -1.03908,-1.89201c0.00064,-0.09391 0.00127,-0.19004 0.00127,-0.28809v-12.56133c0,-1.74504 1.05629,-1.70242 1.87494,-1.66942c0.10639,0.00427 0.20896,0.00841 0.30516,0.00841c6.90663,0 12.49896,0.01593 17.02608,0.0288c16.04306,0.04568 18.69906,0.0532 19.03098,-0.82063c0.06562,-0.17335 0.0395,-0.38136 0.00892,-0.63078c-0.02039,-0.16469 -0.04332,-0.34727 -0.04332,-0.5498c0,0 -0.20769,-14.8452 -0.20769,-34.56959c0,-3.69502 -0.01848,-6.8993 -0.0344,-9.67699c-0.10384,-18.05943 -0.10384,-18.08943 5.74395,-17.72954c13.49599,0.8305 14.63765,0 16.19532,3.21823c5.70955,11.21173 13.28767,28.4446 14.63701,29.17132c0.01784,-0.382 0.03185,-0.58682 0.04396,-0.79183c0.05989,-1.02055 0.05989,-2.04466 0.05989,-24.9537c0,-0.38276 -0.00573,-0.74297 -0.0121,-1.08183c-0.07326,-4.25623 -0.08855,-5.14694 12.98887,-5.14694c0.68104,0 1.30411,-0.00707 1.87303,-0.01357c5.58914,-0.06364 6.01662,-0.06855 6.01662,7.28047c0,13.51855 0.04906,24.53838 0.08919,33.51679c0.13761,31.06004 0.16692,37.6898 -2.31325,38.82228c-0.6734,0.30733 -1.53091,0.20979 -2.6216,0.08588c-0.70525,-0.08021 -1.50798,-0.17138 -2.42092,-0.17138c-8.73697,0 -9.56837,0.08683 -9.56709,0.10168c0,0.00134 0.00765,0.0021 0.01593,0.0021z" fill="#fdd116" id="path-id-44928" data-original-fill="#ffb81c"/>
					<path d="M255.69253,241.45309c0,0 -0.51922,17.23287 -0.51922,35.6077c0,2.42896 0.01402,4.37872 0.02548,5.9434c0.0344,4.77748 0.04332,5.96494 -0.45488,6.24175c-0.16437,0.09161 -0.3848,0.08352 -0.67722,0.07282c-0.10576,-0.00389 -0.22107,-0.00809 -0.34657,-0.00809c-28.20436,0 -28.20117,-0.09435 -28.13937,-2.08161c0.00319,-0.09741 0.00637,-0.19934 0.00637,-0.30606c0,-26.12345 0.25101,-26.08618 2.11066,-25.81064c0.2096,0.03103 0.43959,0.06511 0.69187,0.06511c3.16503,-0.05721 5.68916,-0.07588 7.70107,-0.09078c5.59679,-0.04141 7.23027,-0.05352 7.66922,-0.78368c0.18093,-0.30102 0.15927,-0.72405 0.12805,-1.32144c-0.01402,-0.26917 -0.02994,-0.57376 -0.02994,-0.91848v-7.68215c0,-0.93428 -0.31153,-1.45332 -1.45383,-1.45332c-0.72628,0 -1.14165,-0.10384 -2.38715,-0.10384c-0.13188,0 -0.31153,-0.02389 -0.51731,-0.05122c-0.92823,-0.12353 -2.3897,-0.31797 -2.3897,1.29698c0,0.41525 0.10384,0.8305 0.10384,1.14191c0,2.15774 -1.47931,2.13538 -4.43793,2.09066c-0.45806,-0.00694 -0.95117,-0.0144 -1.47931,-0.0144c-0.65429,0 -1.23977,0.01312 -1.76409,0.02478c-1.72395,0.03854 -2.77641,0.06205 -3.38674,-0.44577c-0.95563,-0.79514 -0.82694,-2.89332 -0.49629,-8.27719c0.04523,-0.73953 0.09429,-1.54104 0.14526,-2.40977c0.00892,-0.17717 -0.00319,-0.3409 -0.01465,-0.49227c-0.11659,-1.53359 -0.13634,-1.79161 23.57976,-1.79161c0.6906,0 1.30602,-0.00229 1.85455,-0.00433c3.05928,-0.01153 4.03147,-0.01516 4.33854,0.43481c0.14271,0.2096 0.14143,0.5175 0.14016,0.96881c-0.00064,0.05078 -0.00064,0.1034 -0.00064,0.15793zM243.87271,271.3235c-0.31217,-0.35311 -1.03908,-0.3393 -2.68404,-0.30806c-0.58038,0.01102 -1.27481,0.02422 -2.1062,0.02422c-1.58379,0 -1.56277,0.2831 -1.37801,2.8287c0.00956,0.12435 0.01911,0.25411 0.02867,0.38949c0,3.84106 0,4.04869 1.86857,4.04869c4.46596,0 4.46596,-0.09926 4.46405,-3.88855c0,-0.08606 0,-0.17404 0,-0.26396c0,-0.43022 0.00956,-0.80267 0.01784,-1.12493c0.02357,-0.9152 0.03695,-1.42569 -0.21087,-1.70561z" fill="#ce1127" id="path-id-37227" data-original-fill="#e31c79"/>
				</g>
				<path d="M354.21064,231.07183c-28.75608,0 -26.99127,0.41525 -26.99127,5.29444c0,41.3174 0.10381,42.87459 3.94488,42.87459c0,0 3.21819,-0.10381 8.40882,-0.10381c3.21819,0 6.54019,0 9.86219,0c7.78594,0 12.97657,-0.41525 12.97657,-0.41525c1.55719,0 1.45338,-0.41525 1.45338,13.59945c0,3.11438 -27.82177,0.72669 -33.63527,1.97244c-1.76481,0.41525 -2.38769,0.93431 -2.38769,2.69913c0,2.38769 0.20763,8.09738 0.62288,12.24988c0.31144,2.69913 -0.31144,2.28388 29.27514,2.28388c28.02939,0 26.88746,0.51906 26.88746,-3.322c0,0 0,-1.76481 0,-3.21819c0,-12.3537 0.51906,-15.57189 0.51906,-29.58658c0,-13.28801 0.41525,-13.28801 -3.73725,-13.28801c-9.03169,0 -18.06339,-0.62288 -27.19889,-0.62288c-1.661,0 -3.42581,0.10381 -3.42581,0.10381c-1.661,0 -1.86863,-0.31144 -1.86863,-3.322c0,-2.38769 0.31144,-4.67157 0.72669,-7.05925c0.51906,-2.4915 0.8305,-2.80294 3.21819,-2.90675c5.60588,-0.41525 11.21176,-0.93431 16.81764,-0.93431c2.59531,0 3.11438,0.10381 5.70969,0.10381c11.83463,0 10.79651,0.10381 10.79651,-5.70969c0,-2.28388 -0.10381,-4.67157 -0.51906,-7.05925c-0.8305,-5.29444 -0.62288,-1.34956 -27.30271,-3.63344c-1.45338,0 -2.80294,0 -4.1525,0z" data-paper-data="{&quot;glyphName&quot;:&quot;S&quot;,&quot;glyphIndex&quot;:10,&quot;word&quot;:2,&quot;line&quot;:2}" fill="#013893" fill-rule="nonzero" id="path-id-97301" data-original-fill="#00c1d5"/>
				<g data-paper-data="{&quot;glyphName&quot;:&quot;&quot;,&quot;glyphIndex&quot;:11,&quot;lastGlyphOfWord&quot;:true,&quot;word&quot;:2,&quot;line&quot;:2,&quot;lastGlyphOfSecondLine&quot;:true}" fill-rule="evenodd">
					<path d="M416.60217,249.44665c0,-1.55614 -0.64664,-1.56149 -11.01264,-1.64737c-2.77323,-0.023 -6.24215,-0.05173 -10.58069,-0.11741c-0.24783,0 -0.47208,0.00905 -0.67531,0.01726c-0.52751,0.02128 -0.9123,0.03682 -1.19262,-0.12678c-0.75367,-0.44029 -0.74921,-2.17806 -0.73265,-8.59331c0.00255,-1.0517 0.00573,-2.22909 0.00573,-3.54709c0,-0.43379 -0.00382,-0.82107 -0.00701,-1.16688c-0.01465,-1.54512 -0.02102,-2.26184 0.3332,-2.59421c0.30644,-0.28758 0.88236,-0.28758 1.95712,-0.28758c20.22042,0 24.13976,-0.10251 28.05974,-0.10378c3.12745,-0.00102 6.25489,0.06237 17.66443,0.29382c3.06883,0.06224 6.73717,0.13665 11.16554,0.22521c0.19431,0 0.37843,-0.00344 0.55235,-0.00663c2.70187,-0.0502 2.97709,-0.0553 2.97709,13.50224c0,2.89689 -0.29688,2.8988 -9.239,2.95582c-1.63285,0.01045 -3.55366,0.02268 -5.81403,0.05479c-0.32236,0.00917 -0.6167,-0.0323 -0.88618,-0.07021c-2.76495,-0.38913 -2.85095,-0.40124 -2.85095,58.72426c0,0.23158 0.00191,0.45042 0.00382,0.65715c0.00956,1.2111 0.01593,2.00828 -0.35932,2.53158c-0.72373,1.00876 -2.8656,0.99984 -9.13706,0.97372c-1.127,-0.00471 -2.38652,-0.00994 -3.79511,-0.00994c-0.57784,0 -1.10407,0.00847 -1.58379,0.01612c-1.89341,0.03039 -3.05673,0.04906 -3.76517,-0.50954c-1.13082,-0.89122 -1.10279,-3.25187 -1.0308,-9.37877c0.02166,-1.82308 0.04714,-3.97967 0.04714,-6.53018v-15.67571h-0.10384z" fill="#fdd116" id="path-id-72680" data-original-fill="#ffb81c"/>
					<path d="M395.68606,288.92523c-0.08155,11.17038 -0.10639,14.58853 1.40541,15.52415c0.66639,0.41251 1.63157,0.34237 3.02233,0.24133c0.76004,-0.05517 1.64686,-0.11958 2.68085,-0.11958c0.83076,0 1.86921,0.31141 2.80317,0.31141c2.50565,0 2.35084,-2.3732 2.22788,-4.24661c-0.02421,-0.37677 -0.04778,-0.73328 -0.04778,-1.04628v-0.00153c0.00255,-0.30809 0.20769,-46.50804 0.20769,-46.50804c0,-1.35005 -0.89192,-1.32845 -3.1765,-1.27302c-0.52623,0.01274 -1.12636,0.02727 -1.80677,0.02727c-1.37674,0 -2.50756,-0.00975 -3.43516,-0.01771c-2.99748,-0.02587 -3.87984,-0.03345 -4.13914,0.36473c-0.1083,0.16609 -0.10767,0.40283 -0.10767,0.73832v0.05664c0,0 0.31153,10.79648 0.41538,24.81119c0,4.37767 -0.02676,8.05331 -0.04969,11.13775z" fill="#ce1127" id="path-id-87466" data-original-fill="#e31c79"/>
				</g>
			</g>
		</g>
	</g>
	<rect data-path-id="path-id-44928" class="invisible-bbox" x="225" y="231" fill="transparent" width="96" height="80"/>
	<rect data-path-id="path-id-4748" class="invisible-bbox" x="237" y="160" fill="transparent" width="98" height="59"/>
	<rect data-path-id="path-id-72680" class="invisible-bbox" x="392" y="231" fill="transparent" width="63" height="80"/>
	<rect data-path-id="path-id-61663" class="invisible-bbox" x="159" y="231" fill="transparent" width="60" height="80"/>
	<rect data-path-id="path-id-97301" class="invisible-bbox" x="327" y="231" fill="transparent" width="59" height="80"/>
	<rect data-path-id="path-id-46885" class="invisible-bbox" x="95" y="232" fill="transparent" width="58" height="80"/>
	<rect data-path-id="path-id-66184" class="invisible-bbox" x="340" y="158" fill="transparent" width="48" height="61"/>
	<rect data-path-id="path-id-49776" class="invisible-bbox" x="143" y="159" fill="transparent" width="43" height="60"/>
	<rect data-path-id="path-id-89499" class="invisible-bbox" x="95" y="159" fill="transparent" width="43" height="59"/>
	<rect data-path-id="path-id-41491" class="invisible-bbox" x="190" y="159" fill="transparent" width="43" height="59"/>
	<rect data-path-id="path-id-73703" class="invisible-bbox" x="412" y="159" fill="transparent" width="43" height="59"/>
	<rect data-path-id="path-id-37227" class="invisible-bbox" x="225" y="240" fill="transparent" width="30" height="49"/>
	<rect data-path-id="path-id-17301" class="invisible-bbox" x="392" y="159" fill="transparent" width="16" height="60"/>
	<rect data-path-id="path-id-56056" class="invisible-bbox" x="238" y="166" fill="transparent" width="22" height="36"/>
	<rect data-path-id="path-id-87466" class="invisible-bbox" x="395" y="252" fill="transparent" width="13" height="53"/>
</svg>